<?xml version="1.0" encoding="UTF-8" standalone="no"?>
<!-- Created with Inkscape (http://www.inkscape.org/) -->

<svg
   version="1.1"
   id="svg2"
   width="507.89334"
   height="113.38667"
   viewBox="0 0 507.89334 113.38667"
   sodipodi:docname="yt_logo_dark.svg"
   inkscape:version="1.2.2 (732a01da63, 2022-12-09)"
   xmlns:inkscape="http://www.inkscape.org/namespaces/inkscape"
   xmlns:sodipodi="http://sodipodi.sourceforge.net/DTD/sodipodi-0.dtd"
   xmlns="http://www.w3.org/2000/svg"
   xmlns:svg="http://www.w3.org/2000/svg">
  <defs
     id="defs6" />
  <sodipodi:namedview
     id="namedview4"
     pagecolor="#ffffff"
     bordercolor="#000000"
     borderopacity="0.25"
     inkscape:showpageshadow="2"
     inkscape:pageopacity="0.0"
     inkscape:pagecheckerboard="0"
     inkscape:deskcolor="#d1d1d1"
     showgrid="false"
     inkscape:zoom="2.858868"
     inkscape:cx="253.94667"
     inkscape:cy="56.840681"
     inkscape:window-width="1920"
     inkscape:window-height="1001"
     inkscape:window-x="-9"
     inkscape:window-y="-9"
     inkscape:window-maximized="1"
     inkscape:current-layer="g10">
    <inkscape:page
       x="0"
       y="0"
       id="page8"
       width="507.89334"
       height="113.38667" />
  </sodipodi:namedview>
  <g
     id="g10"
     inkscape:groupmode="layer"
     inkscape:label="Page 1"
     transform="scale(1.3333333)">
    <g
       id="g12">
      <path
         d="M 118.945,13.281 C 117.551,8.055 113.434,3.938 108.207,2.539 98.73,0 60.742,0 60.742,0 60.742,0 22.754,0 13.277,2.539 8.051,3.938 3.938,8.055 2.539,13.281 0,22.754 0,42.52 0,42.52 c 0,0 0,19.769 2.539,29.242 1.399,5.226 5.512,9.343 10.738,10.738 9.477,2.539 47.465,2.539 47.465,2.539 0,0 37.988,0 47.465,-2.539 5.227,-1.395 9.344,-5.512 10.738,-10.738 2.539,-9.473 2.539,-29.242 2.539,-29.242 0,0 0,-19.766 -2.539,-29.239"
         style="fill:#ed1d24;fill-opacity:1;fill-rule:nonzero;stroke:none"
         id="path14" />
      <path
         d="M 48.594,60.742 80.156,42.52 48.594,24.297 Z"
         style="fill:#ffffff;fill-opacity:1;fill-rule:nonzero;stroke:none"
         id="path16" />
      <path
         d="m 189.801,69.023 c 0.664,-1.734 1,-4.574 1,-8.511 V 43.918 c 0,-3.824 -0.336,-6.617 -1,-8.383 -0.664,-1.769 -1.84,-2.652 -3.52,-2.652 -1.621,0 -2.765,0.883 -3.429,2.652 -0.668,1.766 -1,4.559 -1,8.383 v 16.594 c 0,3.937 0.32,6.777 0.957,8.511 0.636,1.739 1.793,2.606 3.472,2.606 1.68,0 2.856,-0.867 3.52,-2.606 z m -13.465,8.34 c -2.406,-1.617 -4.113,-4.14 -5.125,-7.558 -1.016,-3.414 -1.52,-7.961 -1.52,-13.637 v -7.734 c 0,-5.735 0.579,-10.336 1.735,-13.813 1.16,-3.476 2.969,-6.008 5.429,-7.601 2.461,-1.594 5.692,-2.391 9.688,-2.391 3.937,0 7.094,0.812 9.469,2.433 2.375,1.622 4.113,4.157 5.215,7.602 1.097,3.445 1.648,8.035 1.648,13.77 v 7.734 c 0,5.676 -0.535,10.238 -1.605,13.684 -1.075,3.445 -2.809,5.964 -5.215,7.554 -2.403,1.594 -5.66,2.391 -9.774,2.391 -4.226,0 -7.543,-0.813 -9.945,-2.434"
         style="fill:#ffffff;fill-opacity:1;fill-rule:nonzero;stroke:none"
         id="path18" />
      <path
         d="m 362.375,33.879 c -0.605,0.754 -1.012,1.984 -1.215,3.691 -0.203,1.711 -0.305,4.301 -0.305,7.778 v 3.82 h 8.774 v -3.82 c 0,-3.418 -0.113,-6.008 -0.348,-7.778 -0.23,-1.765 -0.648,-3.011 -1.258,-3.734 -0.609,-0.723 -1.55,-1.086 -2.824,-1.086 -1.273,0 -2.215,0.375 -2.824,1.129 z m -1.52,22.414 v 2.695 c 0,3.418 0.102,5.981 0.305,7.688 0.203,1.707 0.621,2.953 1.262,3.734 0.637,0.781 1.617,1.176 2.953,1.176 1.793,0 3.023,-0.695 3.691,-2.086 0.664,-1.391 1.028,-3.707 1.086,-6.953 l 10.336,0.609 c 0.059,0.465 0.09,1.102 0.09,1.91 0,4.926 -1.348,8.602 -4.043,11.036 -2.691,2.433 -6.5,3.648 -11.422,3.648 -5.906,0 -10.051,-1.852 -12.422,-5.559 -2.379,-3.707 -3.562,-9.441 -3.562,-17.203 v -9.297 c 0,-7.992 1.23,-13.824 3.691,-17.503 2.461,-3.68 6.676,-5.52 12.641,-5.52 4.109,0 7.269,0.754 9.469,2.262 2.199,1.504 3.75,3.851 4.648,7.035 0.899,3.187 1.348,7.59 1.348,13.207 v 9.121 h -20.071"
         style="fill:#ffffff;fill-opacity:1;fill-rule:nonzero;stroke:none"
         id="path20" />
      <path
         d="M 147.141,55.297 133.504,6.035 h 11.898 l 4.782,22.328 c 1.214,5.504 2.113,10.196 2.691,14.075 h 0.348 c 0.406,-2.782 1.304,-7.442 2.691,-13.989 L 160.867,6.035 H 172.77 L 158.957,55.297 V 78.93 H 147.141 V 55.297"
         style="fill:#ffffff;fill-opacity:1;fill-rule:nonzero;stroke:none"
         id="path22" />
      <path
         d="M 241.586,25.672 V 78.93 h -9.383 l -1.043,-6.516 h -0.262 c -2.546,4.922 -6.371,7.383 -11.464,7.383 -3.536,0 -6.141,-1.156 -7.821,-3.477 -1.679,-2.312 -2.519,-5.933 -2.519,-10.859 V 25.672 h 11.988 v 39.094 c 0,2.379 0.262,4.07 0.781,5.082 0.524,1.015 1.391,1.523 2.61,1.523 1.043,0 2.039,-0.32 2.996,-0.957 0.957,-0.637 1.664,-1.445 2.129,-2.434 V 25.672 h 11.988"
         style="fill:#ffffff;fill-opacity:1;fill-rule:nonzero;stroke:none"
         id="path24" />
      <path
         d="M 303.082,25.672 V 78.93 h -9.383 l -1.043,-6.516 h -0.258 c -2.55,4.922 -6.375,7.383 -11.468,7.383 -3.535,0 -6.141,-1.156 -7.821,-3.477 -1.679,-2.312 -2.519,-5.933 -2.519,-10.859 V 25.672 h 11.988 v 39.094 c 0,2.379 0.262,4.07 0.781,5.082 0.524,1.015 1.391,1.523 2.61,1.523 1.043,0 2.039,-0.32 2.996,-0.957 0.957,-0.637 1.664,-1.445 2.129,-2.434 V 25.672 h 11.988"
         style="fill:#ffffff;fill-opacity:1;fill-rule:nonzero;stroke:none"
         id="path26" />
      <path
         d="M 274.164,15.68 H 262.262 V 78.93 H 250.535 V 15.68 H 238.633 V 6.039 h 35.531 v 9.641"
         style="fill:#ffffff;fill-opacity:1;fill-rule:nonzero;stroke:none"
         id="path28" />
      <path
         d="m 331.773,55.91 c 0,3.879 -0.164,6.922 -0.48,9.121 -0.316,2.203 -0.855,3.766 -1.605,4.692 -0.754,0.925 -1.77,1.39 -3.043,1.39 -0.985,0 -1.899,-0.23 -2.735,-0.695 -0.844,-0.465 -1.519,-1.16 -2.043,-2.086 V 38.098 c 0.406,-1.446 1.102,-2.633 2.086,-3.563 0.985,-0.926 2.055,-1.387 3.211,-1.387 1.219,0 2.16,0.477 2.824,1.43 0.668,0.957 1.129,2.567 1.391,4.824 0.262,2.258 0.394,5.473 0.394,9.641 z m 10.989,-21.726 c -0.727,-3.356 -1.899,-5.789 -3.52,-7.297 -1.621,-1.504 -3.851,-2.258 -6.687,-2.258 -2.203,0 -4.258,0.625 -6.168,1.867 -1.914,1.246 -3.391,2.883 -4.434,4.91 h -0.086 V 3.344 h -11.555 v 75.582 h 9.903 l 1.219,-5.035 h 0.257 c 0.926,1.793 2.317,3.211 4.172,4.254 1.852,1.043 3.91,1.566 6.168,1.566 4.055,0 7.035,-1.871 8.949,-5.606 1.911,-3.734 2.868,-9.57 2.868,-17.503 v -8.43 c 0,-5.965 -0.364,-10.625 -1.086,-13.988"
         style="fill:#ffffff;fill-opacity:1;fill-rule:nonzero;stroke:none"
         id="path30" />
    </g>
  </g>
</svg>
